<svg width="14" height="14" viewBox="0 0 14 14" fill="none" xmlns="http://www.w3.org/2000/svg">
<path d="M9.26729 5.50003C9.00309 5.50003 8.76998 5.32721 8.69319 5.07441L7.57407 1.39007C7.40169 0.82258 6.59824 0.822581 6.42587 1.39007L5.30675 5.07441C5.22996 5.32721 4.99685 5.50003 4.73265 5.50003H1.37373C0.789884 5.50003 0.549962 6.2493 1.02521 6.58843L3.78213 8.55575C3.99275 8.70604 4.08329 8.97443 4.00676 9.2216L2.9259 12.7126C2.7533 13.27 3.39754 13.7208 3.86215 13.3677L6.63717 11.2583C6.85162 11.0953 7.14841 11.0952 7.36298 11.258L10.1464 13.3704C10.6111 13.723 11.2548 13.2722 11.0823 12.7149L10.0006 9.22127C9.92409 8.97426 10.0145 8.70604 10.2248 8.55568L12.9776 6.58816C13.4524 6.2488 13.2123 5.50003 12.6287 5.50003H9.26729Z" fill="#F87C09"/>
</svg>
